<svg width="52" height="50" viewBox="0 0 52 50" fill="none" xmlns="http://www.w3.org/2000/svg">
<path d="M37.5 26.125C38.135 26.125 38.65 25.6212 38.65 25C38.65 24.3788 38.135 23.875 37.5 23.875C36.865 23.875 36.35 24.3788 36.35 25C36.35 25.6212 36.865 26.125 37.5 26.125Z" fill="black" stroke="white" stroke-width="4.6305" stroke-linecap="round" stroke-linejoin="round"/>
<path d="M26 26.125C26.635 26.125 27.15 25.6212 27.15 25C27.15 24.3788 26.635 23.875 26 23.875C25.365 23.875 24.85 24.3788 24.85 25C24.85 25.6212 25.365 26.125 26 26.125Z" fill="black" stroke="white" stroke-width="4.6305" stroke-linecap="round" stroke-linejoin="round"/>
<path d="M14.5 26.125C15.1351 26.125 15.65 25.6212 15.65 25C15.65 24.3788 15.1351 23.875 14.5 23.875C13.8649 23.875 13.35 24.3788 13.35 25C13.35 25.6212 13.8649 26.125 14.5 26.125Z" fill="black" stroke="white" stroke-width="4.6305" stroke-linecap="round" stroke-linejoin="round"/>
<path d="M26 47.5C38.7024 47.5 49 37.4263 49 25C49 12.5736 38.7024 2.5 26 2.5C13.2974 2.5 3 12.5736 3 25C3 29.0982 4.12003 32.9405 6.07699 36.25L4.15 46.375L14.5 44.49C17.883 46.4043 21.8108 47.5 26 47.5Z" stroke="white" stroke-width="4.6305" stroke-linecap="round" stroke-linejoin="round"/>
</svg>
